<?xml version="1.0" encoding="utf-8"?>
<!-- Generator: Adobe Illustrator 21.0.2, SVG Export Plug-In . SVG Version: 6.00 Build 0)  -->
<svg version="1.1" id="Isolation_Mode" xmlns="http://www.w3.org/2000/svg" xmlns:xlink="http://www.w3.org/1999/xlink" x="0px"
	 y="0px" width="100px" height="120px" viewBox="0 0 100 120" style="enable-background:new 0 0 100 120;" xml:space="preserve">
<style type="text/css">
	.st0{fill:#1FB065;}
</style>
<g>
	<path class="st0" d="M18.9,35.6c5.1,0,9.2-4.1,9.2-9.2c0-5.1-4.1-9.2-9.2-9.2c-5.1,0-9.2,4.1-9.2,9.2C9.7,31.5,13.8,35.6,18.9,35.6
		z M14.5,22c1.1-1.1,2.7-1.8,4.4-1.8c1.7,0,3.3,0.7,4.4,1.8c1.1,1.1,1.8,2.7,1.8,4.4c0,1.7-0.7,3.3-1.8,4.4
		c-1.1,1.1-2.7,1.8-4.4,1.8c-1.7,0-3.3-0.7-4.4-1.8c-1.1-1.1-1.8-2.7-1.8-4.4C12.7,24.7,13.4,23.1,14.5,22z"/>
	<path class="st0" d="M37.8,51.3c0-6.1-4.9-11-11-11H11c-6.1,0-11,4.9-11,11v32c0,0.4,0.2,0.8,0.4,1.1s0.7,0.4,1.1,0.4h5.2l0,30.2
		c0,0.8,0.7,1.5,1.5,1.5c0.8,0,1.5-0.7,1.5-1.5l0-31.7c0-0.4-0.2-0.8-0.4-1.1s-0.7-0.4-1.1-0.4H3l0-30.5c0-2.2,0.9-4.2,2.3-5.7
		c1.5-1.4,3.4-2.3,5.7-2.3h15.9c2.2,0,4.2,0.9,5.7,2.3c1.4,1.5,2.3,3.4,2.3,5.7v30.5h-5.2c-0.4,0-0.8,0.2-1.1,0.4
		c-0.3,0.3-0.4,0.7-0.4,1.1V115c0,0.8,0.7,1.5,1.5,1.5c0.8,0,1.5-0.7,1.5-1.5h0V84.8l5.2,0c0.4,0,0.8-0.2,1.1-0.4
		c0.3-0.3,0.4-0.7,0.4-1.1V51.3z"/>
	<path class="st0" d="M49.5,21.9c5.1,0,9.2-4.1,9.2-9.2c0-5.1-4.1-9.2-9.2-9.2c-5.1,0-9.2,4.1-9.2,9.2
		C40.4,17.8,44.5,21.9,49.5,21.9z M45.2,8.3c1.1-1.1,2.7-1.8,4.4-1.8c1.7,0,3.3,0.7,4.4,1.8c1.1,1.1,1.8,2.7,1.8,4.4
		c0,1.7-0.7,3.3-1.8,4.4c-1.1,1.1-2.7,1.8-4.4,1.8c-1.7,0-3.3-0.7-4.4-1.8c-1.1-1.1-1.8-2.7-1.8-4.4C43.4,11,44,9.4,45.2,8.3z"/>
	<path class="st0" d="M65.5,36.1c0,0.8,0.7,1.5,1.5,1.5c0.8,0,1.5-0.7,1.5-1.5h0c0-2.7-1.3-5.1-3.3-6.8c-2-1.7-4.7-2.7-7.7-2.7H41.6
		c-3,0-5.7,1-7.7,2.7c-2,1.7-3.3,4.1-3.3,6.8c0,0.8,0.7,1.5,1.5,1.5c0.8,0,1.5-0.7,1.5-1.5c0-1.7,0.8-3.3,2.2-4.5
		c1.4-1.2,3.5-2,5.7-2h15.9c2.3,0,4.3,0.8,5.7,2C64.7,32.8,65.5,34.4,65.5,36.1z"/>
	<path class="st0" d="M38.9,88.1c-0.8,0-1.5,0.7-1.5,1.5v17.9c0,0.8,0.7,1.5,1.5,1.5c0.8,0,1.5-0.7,1.5-1.5V89.6
		C40.4,88.7,39.7,88.1,38.9,88.1z"/>
	<path class="st0" d="M60.2,88.1c-0.8,0-1.5,0.7-1.5,1.5v17.9c0,0.8,0.7,1.5,1.5,1.5c0.8,0,1.5-0.7,1.5-1.5V89.6
		C61.7,88.7,61,88.1,60.2,88.1z"/>
	<path class="st0" d="M80,35.6c5.1,0,9.2-4.1,9.2-9.2c0-5.1-4.1-9.2-9.2-9.2c-5.1,0-9.2,4.1-9.2,9.2C70.8,31.5,74.9,35.6,80,35.6z
		 M75.6,22c1.1-1.1,2.7-1.8,4.4-1.8c1.7,0,3.3,0.7,4.4,1.8c1.1,1.1,1.8,2.7,1.8,4.4c0,1.7-0.7,3.3-1.8,4.4c-1.1,1.1-2.7,1.8-4.4,1.8
		c-1.7,0-3.3-0.7-4.4-1.8c-1.1-1.1-1.8-2.7-1.8-4.4C73.8,24.7,74.5,23.1,75.6,22z"/>
	<path class="st0" d="M87.9,40.3H72c-6.1,0-11,4.9-11,11v32c0,0.4,0.2,0.8,0.4,1.1s0.7,0.4,1.1,0.4h5.2V115c0,0.8,0.7,1.5,1.5,1.5
		c0.8,0,1.5-0.7,1.5-1.5l0-31.7c0-0.4-0.2-0.8-0.4-1.1c-0.3-0.3-0.7-0.4-1.1-0.4H64l0-30.5c0-2.2,0.9-4.2,2.3-5.7
		c1.5-1.4,3.4-2.3,5.7-2.3h15.9c2.2,0,4.2,0.9,5.7,2.3c1.4,1.5,2.3,3.4,2.3,5.7v30.5h-5.2c-0.4,0-0.8,0.2-1.1,0.4
		c-0.3,0.3-0.4,0.7-0.4,1.1V115c0,0.8,0.7,1.5,1.5,1.5c0.8,0,1.5-0.7,1.5-1.5h0V84.8l5.2,0c0.4,0,0.8-0.2,1.1-0.4s0.4-0.7,0.4-1.1
		v-32C98.9,45.2,94,40.3,87.9,40.3z"/>
	<path class="st0" d="M80.5,89.9c-0.8,0-1.5,0.7-1.5,1.5V115c0,0.8,0.7,1.5,1.5,1.5c0.8,0,1.5-0.7,1.5-1.5V91.4
		C82,90.6,81.4,89.9,80.5,89.9z"/>
	<path class="st0" d="M28.9,51.2c0-0.8-0.7-1.5-1.5-1.5l-6.5,0c-0.8,0-1.5,0.7-1.5,1.5c0,0.8,0.7,1.5,1.5,1.5l6.5,0
		C28.2,52.7,28.9,52,28.9,51.2z"/>
</g>
</svg>
