<?xml version="1.0" encoding="utf-8"?>
<!-- Generator: Adobe Illustrator 21.0.2, SVG Export Plug-In . SVG Version: 6.00 Build 0)  -->
<svg version="1.1" id="Isolation_Mode" xmlns="http://www.w3.org/2000/svg" xmlns:xlink="http://www.w3.org/1999/xlink" x="0px"
	 y="0px" width="90px" height="120px" viewBox="0 0 90 120" style="enable-background:new 0 0 90 120;" xml:space="preserve">
<style type="text/css">
	.st0{fill:#1FB065;}
</style>
<g>
	<path class="st0" d="M80.3,48.5c-0.8,0-1.5,0.7-1.5,1.5h0v52.4H65.2c-0.8,0-1.5,0.7-1.5,1.5c0,0.8,0.7,1.5,1.5,1.5l15,0
		c0.4,0,0.8-0.2,1.1-0.4c0.3-0.3,0.4-0.7,0.4-1.1V50C81.8,49.2,81.1,48.5,80.3,48.5z"/>
	<path class="st0" d="M20.4,102.5L20.4,102.5l-12.8,0V61.2c0-0.3-0.1-0.5-0.2-0.7c3.1-0.4,5.6-3.1,5.6-6.4c0-3.6-2.9-6.5-6.5-6.5
		c-3.6,0-6.5,2.9-6.5,6.5c0,3,2.1,5.5,4.8,6.3c-0.2,0.2-0.3,0.5-0.3,0.8l0,42.7c0,0.4,0.2,0.8,0.4,1.1s0.7,0.4,1.1,0.4h14.3
		c0.8,0,1.5-0.7,1.5-1.5C21.9,103.1,21.2,102.5,20.4,102.5z M3,54.1c0-1,0.4-1.8,1-2.5c0.6-0.6,1.5-1,2.5-1c1,0,1.8,0.4,2.5,1
		c0.6,0.6,1,1.5,1,2.5c0,1-0.4,1.8-1,2.5c-0.6,0.6-1.5,1-2.5,1c-1,0-1.8-0.4-2.5-1C3.4,55.9,3,55.1,3,54.1z"/>
	<path class="st0" d="M70.1,72.9c-0.8,0-1.5,0.7-1.5,1.5v4.4c0,0.8,0.7,1.5,1.5,1.5c0.8,0,1.5-0.7,1.5-1.5v-4.4
		C71.6,73.6,71,72.9,70.1,72.9z"/>
	<path class="st0" d="M6.7,16.1c-0.1,0.2-0.2,0.5-0.2,0.8h0v13c0,1.2,0.3,2.5,0.8,3.7c0.5,1.2,1.3,2.3,2.4,3.1l0,0l17,11.4l0,0
		c0.2,0.1,0.3,0.3,0.5,0.5c0.2,0.4,0.4,0.9,0.5,1.5c0.1,0.6,0.1,1.3,0.1,2v4.8c0,0.8,0.7,1.5,1.5,1.5c0.8,0,1.5-0.7,1.5-1.5l0-4.8
		c0-1,0-2.2-0.3-3.3c-0.1-0.6-0.4-1.2-0.7-1.7c-0.3-0.6-0.8-1.1-1.4-1.5l0,0l-17-11.4l0,0c-0.4-0.3-1-1-1.3-1.8
		c-0.4-0.8-0.6-1.8-0.6-2.5v-13c0-0.3-0.1-0.5-0.2-0.8c3-0.6,5.2-3.2,5.2-6.3c0-3.6-2.9-6.5-6.5-6.5c-3.6,0-6.5,2.9-6.5,6.5
		C1.5,12.9,3.8,15.5,6.7,16.1z M5.5,7.3c0.6-0.6,1.5-1,2.5-1c1,0,1.8,0.4,2.5,1c0.6,0.6,1,1.5,1,2.5c0,1-0.4,1.8-1,2.5
		c-0.6,0.6-1.5,1-2.5,1c-1,0-1.8-0.4-2.5-1c-0.6-0.6-1-1.5-1-2.5C4.5,8.8,4.9,7.9,5.5,7.3z"/>
	<path class="st0" d="M36,44.9c3.6,0,6.5-2.9,6.5-6.5c0-3.1-2.2-5.7-5.2-6.3c0.1-0.2,0.2-0.5,0.2-0.8v-9.8c0-0.8-0.7-1.5-1.5-1.5
		c-0.8,0-1.5,0.7-1.5,1.5v9.8c0,0.3,0.1,0.5,0.2,0.8c-3,0.6-5.2,3.2-5.2,6.3C29.6,42,32.5,44.9,36,44.9z M33.6,36
		c0.6-0.6,1.5-1,2.5-1c1,0,1.8,0.4,2.5,1c0.6,0.6,1,1.5,1,2.5c0,1-0.4,1.8-1,2.5c-0.6,0.6-1.5,1-2.5,1c-1,0-1.8-0.4-2.5-1
		c-0.6-0.6-1-1.5-1-2.5C32.6,37.5,33,36.6,33.6,36z"/>
	<path class="st0" d="M52.4,16.2c3.6,0,6.5-2.9,6.5-6.5c0-3.6-2.9-6.5-6.5-6.5c-3.6,0-6.5,2.9-6.5,6.5
		C45.9,13.3,48.8,16.2,52.4,16.2z M49.9,7.3c0.6-0.6,1.5-1,2.5-1c1,0,1.8,0.4,2.5,1c0.6,0.6,1,1.5,1,2.5c0,1-0.4,1.8-1,2.5
		c-0.6,0.6-1.5,1-2.5,1c-1,0-1.8-0.4-2.5-1c-0.6-0.6-1-1.5-1-2.5C48.9,8.8,49.3,7.9,49.9,7.3z"/>
	<path class="st0" d="M45.6,54.2c0.7,0.4,1.6,0.1,2-0.6l0,0c0.6-1.1,1.7-1.8,3.1-1.8c1,0,1.8,0.4,2.5,1c0.6,0.6,1,1.5,1,2.5
		c0,0.5-0.1,0.9-0.3,1.3c-0.3,0.8,0.1,1.6,0.8,2c0.8,0.3,1.6-0.1,2-0.8c0.3-0.7,0.5-1.6,0.5-2.4c0-3.1-2.2-5.7-5.1-6.3
		c0,0,0-0.1,0-0.1h0V34.9c0-0.7,0.2-1.6,0.6-2.5c0.4-0.8,0.9-1.5,1.4-1.8l17.8-11.4l0,0c1.1-0.7,1.9-1.8,2.4-3
		c0.5-1.2,0.8-2.4,0.8-3.6V8c0-0.8-0.7-1.5-1.5-1.5c-0.8,0-1.5,0.7-1.5,1.5l0,4.6c0,0.7-0.2,1.6-0.6,2.3c-0.4,0.8-0.9,1.4-1.4,1.7
		L52.4,28.1l0,0c-1.1,0.8-1.9,1.9-2.5,3.1c-0.5,1.2-0.9,2.5-0.9,3.7v13.9c0,0.1,0,0.1,0,0.2c-1.8,0.5-3.2,1.6-4.1,3.2
		C44.6,52.9,44.9,53.8,45.6,54.2z"/>
	<path class="st0" d="M68.8,42.7c-0.1,0.2-0.2,0.5-0.2,0.8v21.1c0,0.8,0.7,1.5,1.5,1.5c0.8,0,1.5-0.7,1.5-1.5V43.5
		c0-0.3-0.1-0.5-0.2-0.8c3-0.6,5.2-3.2,5.2-6.3c0-3.6-2.9-6.5-6.5-6.5c-3.6,0-6.5,2.9-6.5,6.5C63.7,39.5,65.9,42.1,68.8,42.7z
		 M67.7,33.9c0.6-0.6,1.5-1,2.5-1c1,0,1.8,0.4,2.5,1c0.6,0.6,1,1.5,1,2.5c0,1-0.4,1.8-1,2.5c-0.6,0.6-1.5,1-2.5,1
		c-1,0-1.8-0.4-2.5-1c-0.6-0.6-1-1.5-1-2.5C66.7,35.4,67,34.5,67.7,33.9z"/>
	<path class="st0" d="M42.8,60.8c-10,0-18.2,8.1-18.2,18.2v39c0,0.8,0.7,1.5,1.5,1.5c0.8,0,1.5-0.7,1.5-1.5h0V79
		c0-4.2,1.7-8,4.4-10.7c2.7-2.7,6.5-4.4,10.7-4.4c4.2,0,8,1.7,10.7,4.4C56.3,71,58,74.8,58,79v39c0,0.8,0.7,1.5,1.5,1.5
		c0.8,0,1.5-0.7,1.5-1.5l0-39C61,68.9,52.8,60.8,42.8,60.8z"/>
	<path class="st0" d="M52.4,78.4c-0.8,0-1.5,0.7-1.5,1.5h0c0,2.1-0.8,4-2.2,5.4c-1.4,1.4-3.3,2.2-5.4,2.2c-2.1,0-4-0.8-5.4-2.2
		c-1.4-1.4-2.2-3.3-2.2-5.4c0-0.8-0.7-1.5-1.5-1.5c-0.8,0-1.5,0.7-1.5,1.5c0,5.9,4.7,10.6,10.6,10.6c5.9,0,10.6-4.7,10.6-10.6
		C53.9,79.1,53.2,78.4,52.4,78.4z"/>
	<path class="st0" d="M50.5,111.5H36.1c-0.8,0-1.5,0.7-1.5,1.5c0,0.8,0.7,1.5,1.5,1.5h14.4c0.8,0,1.5-0.7,1.5-1.5
		C52,112.2,51.3,111.5,50.5,111.5z"/>
	<path class="st0" d="M50.5,102.5H36.1c-0.8,0-1.5,0.7-1.5,1.5c0,0.8,0.7,1.5,1.5,1.5h14.4c0.8,0,1.5-0.7,1.5-1.5
		C52,103.1,51.3,102.5,50.5,102.5z"/>
	<path class="st0" d="M22.4,29.9c0.8,0,1.5-0.7,1.5-1.5V2c0-0.8-0.7-1.5-1.5-1.5c-0.8,0-1.5,0.7-1.5,1.5v26.4
		C20.9,29.2,21.6,29.9,22.4,29.9z"/>
	<path class="st0" d="M11.7,71.5V89c0,0.8,0.7,1.5,1.5,1.5c0.8,0,1.5-0.7,1.5-1.5V71.5c0-0.8-0.7-1.5-1.5-1.5
		C12.4,70,11.7,70.7,11.7,71.5z"/>
</g>
</svg>
